<svg width="193" height="28" viewBox="0 0 193 28" fill="none" xmlns="http://www.w3.org/2000/svg">
<g id="yamato_logo 1">
<g id="logo">
<g id="Group">
<g id="Group_2">
<g id="Group_3">
<path id="Vector" d="M1.36328 13.7659C1.36328 5.28791 9.03016 1.00391 18.6979 1.00391C28.3656 1.00391 35.9439 5.28791 35.9439 13.7659C35.9439 22.2439 28.3833 26.4199 18.6979 26.5279C9.01246 26.6179 1.36328 22.2439 1.36328 13.7659Z" fill="#FDD000"/>
<path id="Vector_2" d="M33.3763 11.012L33.0221 9.53595L32.9336 9.49995L26.7364 11.912H16.3958H16.3781V11.804C16.3781 11.804 16.5552 11.624 16.7145 11.264C16.927 10.706 17.0332 10.04 17.0332 9.28395V5.25195H16.6083L14.0763 7.91595H10.1277L7.61342 5.25195H7.18846V9.26595C7.18846 10.076 7.31241 10.778 7.5603 11.372C7.96755 12.272 8.46333 12.524 8.46333 12.524V12.632H8.3925H7.94984L6.60415 11.228H6.1792V13.46C6.1792 14.162 6.33856 14.702 6.62186 15.134C6.90516 15.548 7.2947 15.854 7.75507 16.034C8.02067 16.142 8.32168 16.16 8.46333 16.16V16.268H6.7458L6.67498 16.34V17.132L6.78122 17.276L8.44562 18.158V19.418L7.20617 20.282L7.15305 20.372V21.182L7.22388 21.254H8.42791C10.4464 21.236 12.04 19.598 12.04 17.582V16.178L13.2264 17.636L11.8984 23.036L11.9692 23.108H14.1648L14.2533 23.072L17.7769 18.752H23.5492L27.0728 23.072L27.1613 23.108H29.3569L29.4277 23.036L27.4446 14.972L33.3409 11.12L33.3763 11.012Z" fill="black"/>
<path id="Vector_3" d="M12.9612 10.3643C12.8726 10.2203 12.8903 10.0403 13.0674 9.87834C13.1382 9.82434 13.8111 9.35634 14.8381 9.26634C15.1036 9.24834 15.263 9.37434 15.2807 9.62634C15.2984 9.86034 15.1922 10.0043 14.8735 10.0403C14.1121 10.0943 13.4392 10.4363 13.333 10.4723C13.2268 10.5263 13.0497 10.5263 12.9612 10.3643Z" fill="#FDD000"/>
<path id="Vector_4" d="M11.2613 10.3643C11.3499 10.2203 11.3322 10.0403 11.1551 9.87834C11.0843 9.82434 10.4114 9.35634 9.38447 9.26634C9.11887 9.24834 8.95951 9.37434 8.94181 9.62634C8.9241 9.86034 9.03034 10.0043 9.34906 10.0403C10.1104 10.0943 10.7833 10.4363 10.8895 10.4723C10.978 10.5263 11.1551 10.5263 11.2613 10.3643Z" fill="#FDD000"/>
<path id="Vector_5" d="M10.0746 14.3962C10.0038 14.2882 10.0215 14.1622 10.1632 14.0362C10.2163 14.0002 10.7121 13.6402 11.4735 13.5862C11.6682 13.5682 11.7922 13.6582 11.8099 13.8562C11.8276 14.0362 11.739 14.1442 11.5089 14.1622C10.9423 14.1982 10.4465 14.4502 10.3757 14.4862C10.2694 14.5222 10.1455 14.5222 10.0746 14.3962Z" fill="#FDD000"/>
<path id="Vector_6" d="M9.10119 14.3962C9.17202 14.2882 9.15431 14.1622 9.01266 14.0362C8.95954 14.0002 8.46376 13.6402 7.70239 13.5862C7.50761 13.5682 7.38367 13.6582 7.36596 13.8562C7.34826 14.0362 7.43679 14.1442 7.66697 14.1622C8.23358 14.1982 8.72936 14.4502 8.80018 14.4862C8.90642 14.5222 9.03037 14.5222 9.10119 14.3962Z" fill="#FDD000"/>
</g>
</g>
</g>
<g id="Group_4">
<g id="Group_5">
<g id="Group_6">
<path id="Vector_7" d="M1.36328 13.7659C1.36328 5.28791 9.03016 1.00391 18.6979 1.00391C28.3656 1.00391 35.9439 5.28791 35.9439 13.7659C35.9439 22.2439 28.3833 26.4199 18.6979 26.5279C9.01245 26.6179 1.36328 22.2439 1.36328 13.7659Z" fill="#FDD000"/>
<path id="Vector_8" d="M33.3763 11.012L33.0221 9.53595L32.9336 9.49995L26.7364 11.912H16.3958H16.3781V11.804C16.3781 11.804 16.5552 11.624 16.7145 11.264C16.927 10.706 17.0332 10.04 17.0332 9.28395V5.25195H16.6083L14.0763 7.91595H10.1277L7.61342 5.25195H7.18846V9.26595C7.18846 10.076 7.31241 10.778 7.5603 11.372C7.96755 12.272 8.46333 12.524 8.46333 12.524V12.632H8.3925H7.94984L6.60415 11.228H6.1792V13.46C6.1792 14.162 6.33856 14.702 6.62186 15.134C6.90516 15.548 7.2947 15.854 7.75507 16.034C8.02067 16.142 8.32168 16.16 8.46333 16.16V16.268H6.7458L6.67498 16.34V17.132L6.78122 17.276L8.44562 18.158V19.418L7.20617 20.282L7.15305 20.372V21.182L7.22388 21.254H8.42791C10.4464 21.236 12.04 19.598 12.04 17.582V16.178L13.2264 17.636L11.8984 23.036L11.9692 23.108H14.1648L14.2533 23.072L17.7769 18.752H23.5492L27.0728 23.072L27.1613 23.108H29.3569L29.4277 23.036L27.4446 14.972L33.3409 11.12L33.3763 11.012Z" fill="black"/>
<path id="Vector_9" d="M12.9612 10.3643C12.8726 10.2203 12.8903 10.0403 13.0674 9.87834C13.1382 9.82434 13.8111 9.35634 14.8381 9.26634C15.1036 9.24834 15.263 9.37434 15.2807 9.62634C15.2984 9.86034 15.1922 10.0043 14.8735 10.0403C14.1121 10.0943 13.4392 10.4363 13.333 10.4723C13.2268 10.5263 13.0497 10.5263 12.9612 10.3643Z" fill="#FDD000"/>
<path id="Vector_10" d="M11.2613 10.3643C11.3499 10.2203 11.3322 10.0403 11.1551 9.87834C11.0843 9.82434 10.4114 9.35634 9.38447 9.26634C9.11887 9.24834 8.95951 9.37434 8.94181 9.62634C8.9241 9.86034 9.03034 10.0043 9.34906 10.0403C10.1104 10.0943 10.7833 10.4363 10.8895 10.4723C10.978 10.5263 11.1551 10.5263 11.2613 10.3643Z" fill="#FDD000"/>
<path id="Vector_11" d="M10.0746 14.3962C10.0038 14.2882 10.0215 14.1622 10.1632 14.0362C10.2163 14.0002 10.7121 13.6402 11.4735 13.5862C11.6682 13.5682 11.7922 13.6582 11.8099 13.8562C11.8276 14.0362 11.739 14.1442 11.5089 14.1622C10.9423 14.1982 10.4465 14.4502 10.3757 14.4862C10.2694 14.5222 10.1455 14.5222 10.0746 14.3962Z" fill="#FDD000"/>
<path id="Vector_12" d="M9.10119 14.3962C9.17202 14.2882 9.15431 14.1622 9.01266 14.0362C8.95954 14.0002 8.46376 13.6402 7.70239 13.5862C7.50761 13.5682 7.38367 13.6582 7.36596 13.8562C7.34826 14.0362 7.43679 14.1442 7.66697 14.1622C8.23358 14.1982 8.72936 14.4502 8.80018 14.4862C8.90642 14.5222 9.03037 14.5222 9.10119 14.3962Z" fill="#FDD000"/>
</g>
</g>
</g>
<g id="Group_7">
<path id="Vector_13" d="M87.5228 8.94183C87.5228 8.94183 87.6113 11.4438 87.5582 12.3078C87.3812 15.5118 86.1948 16.6638 85.1147 17.6718L86.5667 19.1838C88.0717 18.0318 89.6122 16.1778 89.6653 12.2358C89.683 11.3358 89.6653 9.49983 89.6299 8.92383H87.5228V8.94183Z" fill="black"/>
<path id="Vector_14" d="M93.3124 16.5734V8.94141H91.1699V17.7614L92.3385 19.1294C94.0207 18.6794 96.0038 17.5454 97.2432 16.5374L96.1277 14.9354C95.3841 15.4934 94.18 16.3034 93.3124 16.5734Z" fill="black"/>
<path id="Vector_15" d="M115.587 7.77148C114.702 7.77148 113.994 8.47348 113.941 9.35548H106.433V11.4615H113.268C113.232 12.1815 112.754 14.5395 111.285 15.6195C110.187 16.4295 108.806 16.8795 107.637 17.0595L107.956 19.1115C109.992 18.8055 111.745 18.1935 113.25 16.7175C114.844 15.1695 115.357 12.5595 115.499 11.1015C115.517 11.1015 115.552 11.1015 115.57 11.1015C116.473 11.1015 117.216 10.3455 117.216 9.42748C117.216 8.50948 116.508 7.77148 115.587 7.77148ZM115.587 10.0755C115.251 10.0755 114.968 9.78748 114.968 9.44548C114.968 9.10348 115.251 8.81548 115.587 8.81548C115.924 8.81548 116.207 9.10348 116.207 9.44548C116.225 9.78748 115.941 10.0755 115.587 10.0755Z" fill="black"/>
<path id="Vector_16" d="M105.495 12.5771H97.8101V14.7551H105.495V12.5771Z" fill="black"/>
<path id="Vector_17" d="M82.4585 10.0031L81.8742 8.94115H76.5268C76.2258 9.28315 75.6769 9.87715 75.0395 10.4531C74.5437 10.9031 74.0125 11.3531 73.499 11.7131L74.7739 13.3331C75.4467 12.8831 75.8717 12.5231 76.3143 12.1091C76.6508 11.7851 77.0403 11.4431 77.3767 11.0291H80.8472C80.6524 12.5411 80.0681 13.7111 79.2536 14.6831C78.5454 15.5111 77.5184 16.4651 74.6499 17.1491L75.1634 19.1831C78.1735 18.6251 79.8733 17.4011 81.0065 16.0151C82.0866 14.6831 82.7949 12.9191 83.0782 10.9391H83.8042V8.07715H82.4408V10.0031H82.4585Z" fill="black"/>
<path id="Vector_18" d="M85.6102 8.07715H84.353V10.9211H85.6102V8.07715Z" fill="black"/>
<path id="Vector_19" d="M49.5247 9.93157L44.1065 10.1656L43.6815 8.05957L41.5037 8.49157L41.8578 10.2736L39.4497 10.3816L39.5559 12.3976L42.2473 12.2716L43.6638 19.4536L45.8417 19.0216L44.496 12.1636L48.2852 11.9836C47.8957 12.7756 47.0989 13.8196 46.426 14.5216L48.0373 15.8356C48.781 15.0436 49.5778 13.9636 50.2683 12.8836L50.3037 12.8116C50.6048 12.3436 50.8172 11.8936 50.9766 11.5336L49.5601 9.89557H49.5247V9.93157Z" fill="black"/>
<path id="Vector_20" d="M67.7978 12.0194V8.27539H65.5137V19.2374H67.7978V14.5214V14.2874C68.4706 14.4494 69.0018 14.5934 69.657 14.7734C70.6485 15.0614 71.4807 15.3314 71.8349 15.4394L72.4546 13.2794C71.5516 13.0094 70.8256 12.7934 70.0288 12.5774C69.3737 12.3974 68.6831 12.2174 67.7978 12.0194Z" fill="black"/>
<path id="Vector_21" d="M52.3398 9.44531V11.4433H60.3077C59.6172 12.5593 58.3246 13.9633 57.2445 14.8093C56.4654 13.7653 55.5093 12.5233 55.5093 12.5233L53.7741 13.7293C53.7741 13.7293 54.801 15.0253 55.7926 16.4293C56.3061 17.1673 57.8997 19.3993 57.8997 19.3993L59.6526 18.1753C59.4755 17.9053 59.1037 17.3653 58.5017 16.5373C60.1838 15.1333 62.0076 13.1173 63.1408 11.0833L61.7242 9.44531H52.3398Z" fill="black"/>
<path id="Vector_22" d="M168.37 18.1032L169.645 18.3012C169.84 17.3292 169.928 16.2852 170.035 15.3852L168.795 15.2412C168.742 16.1052 168.529 17.3832 168.37 18.1032Z" fill="black"/>
<path id="Vector_23" d="M178.959 8.34748H173.735V13.4055H173.647C173.416 12.8835 173.009 12.1095 172.921 11.9655L171.858 12.5955C171.965 12.8115 172.088 13.0455 172.195 13.3155L170.548 13.3515C171.575 12.3975 172.691 11.3355 173.576 10.3635L172.496 9.42748C172.159 9.78748 171.54 10.4355 170.814 11.1555L170.495 10.8315C170.513 10.7955 170.548 10.7775 170.566 10.7415C171.097 10.1835 171.752 9.42748 172.23 8.79748L171.097 7.77148C170.619 8.38348 169.999 9.12148 169.468 9.67948C169.45 9.69748 169.415 9.73348 169.397 9.75148L169.025 9.37348L167.963 10.4175L169.698 12.2355C169.255 12.6675 168.813 13.0815 168.423 13.4055L168.494 14.7555L170.3 14.7015V19.0395H171.787V14.6295L172.797 14.5935C172.85 14.7015 172.903 14.8275 172.956 14.9175L173.735 14.5395V16.9335L173.647 16.9155C173.629 16.7535 173.346 15.3315 173.293 15.1335L172.088 15.3135C172.23 16.0695 172.336 16.7895 172.443 17.7075L172.797 17.6715V19.0755H179.685V17.5455H178.923V8.34748H178.959ZM177.347 14.3595H175.258V12.8655H177.347V14.3595ZM175.258 15.7815H177.347V17.5095H175.258V15.7815ZM177.347 11.4435H175.258V9.94948H177.347V11.4435Z" fill="black"/>
<path id="Vector_24" d="M189.76 10.022C188.786 9.37397 187.723 8.52797 187.245 8.16797H184.642C184.164 8.52797 183.102 9.37397 182.128 10.022C181.172 10.67 180.588 11.012 180.145 11.282L181.03 13.028C181.579 12.704 182.075 12.326 182.783 11.822V13.01H188.91V11.696C189.742 12.272 190.273 12.686 190.857 13.046L191.743 11.3C191.3 11.012 190.716 10.67 189.76 10.022ZM185.032 10.094H185.935H186.838C187.192 10.364 187.741 10.868 188.379 11.336H183.474C184.129 10.868 184.678 10.346 185.032 10.094Z" fill="black"/>
<path id="Vector_25" d="M154.364 15.0791V13.3871H151.478V12.8471H152.01H153.816V8.3291H147.353V12.8651H147.795H149.177H149.708V13.4051H146.91V15.0791H148.84C148.167 15.7631 147.282 16.5731 146.45 17.1671L147.618 18.5171C148.787 17.5631 149.442 16.6271 149.548 16.3751C149.619 16.1951 149.672 15.9071 149.672 15.9071H149.796L149.743 16.3751V19.1111H151.461V16.3751L151.408 15.9071H151.514C151.514 15.9071 151.567 16.1771 151.655 16.3751C151.762 16.6451 152.488 17.6711 153.603 18.5531L154.754 17.1491C153.993 16.6091 153.037 15.7811 152.311 15.0791H154.364ZM149.159 9.9131H152.01V11.2451H149.159V9.9131Z" fill="black"/>
<path id="Vector_26" d="M181.916 19.0577H183.757V18.8057H188.148V19.0577H189.99V13.9277H181.933V19.0577H181.916ZM188.13 17.2037H183.739V15.4577H188.13V17.2037Z" fill="black"/>
<path id="Vector_27" d="M147.246 8.77928L145.688 8.11328C145.582 8.34728 145.086 9.55328 144.519 10.5973C144.094 11.3893 143.723 12.1273 142.855 13.1713L144.148 14.3593C144.307 14.1793 144.413 14.0533 144.466 13.9813C144.608 13.8013 144.661 13.6753 144.661 13.6753L144.732 13.6933C144.679 13.8553 144.643 14.0173 144.643 14.0533C144.643 15.0613 144.643 19.0933 144.643 19.0933H145.033H146.396V11.1553H146.219C146.733 10.0753 147.175 8.94128 147.246 8.77928Z" fill="black"/>
<path id="Vector_28" d="M129.469 8.85141H127.646V8.32941H125.822V8.85141H124.6V10.1834H125.822V10.5794H124.423V12.0014H125.822V12.3794H124.6V13.6394H125.822V13.9994H124.724V15.2594H125.822V15.6014H124.494V16.9694H125.822V17.4734C124.724 17.4374 124.246 17.2574 123.963 16.8794C124.033 16.5914 124.069 16.3034 124.104 15.9794C124.246 14.8454 124.228 13.5674 124.228 13.4594V12.0194H123.449C123.467 11.9834 123.485 11.9474 123.502 11.9114C123.91 11.1554 124.193 10.5434 124.193 10.5434V8.85141H121.696C121.714 8.77941 121.732 8.72541 121.732 8.68941L120.297 8.14941C120.227 8.36541 119.749 9.93141 119.288 10.9214C118.916 11.6774 118.722 12.0374 118.066 13.0814L119.394 14.0714C119.518 13.8914 119.695 13.4594 119.749 13.4054L119.837 13.4414C119.766 13.6214 119.713 13.7654 119.713 13.8014C119.713 14.8634 119.713 19.0934 119.713 19.0934H120.067H121.147C121.147 19.0934 121.147 18.6074 121.147 17.9234L121.962 19.2374C122.44 18.9494 122.953 18.6074 123.29 18.2294C124.033 18.8954 125.078 19.0574 125.592 19.0934C127.362 19.2374 129.611 19.0934 129.611 19.0934V17.4374C129.611 17.4374 128.655 17.4734 127.61 17.4914V16.9874H129.487V15.6194H127.61V15.2594H129.275V13.9994H127.61V13.6574H129.434V12.0014H129.947V10.5794H129.434V8.85141H129.469ZM122.794 15.5294C122.635 14.9714 122.44 14.2154 122.369 13.9094L121.183 14.2154C121.183 13.9274 121.183 13.6754 121.183 13.5134C121.183 13.4594 121.183 13.2794 121.183 13.0994L122.21 13.7294C122.281 13.6574 122.334 13.5674 122.404 13.4954H122.812C122.829 14.0174 122.829 14.8274 122.794 15.5294ZM122.475 10.5434C122.369 10.7774 122.227 11.0834 122.033 11.4254C121.749 11.9294 121.519 12.2534 121.165 12.6674V11.1554H120.97C121.183 10.5614 121.395 9.89541 121.555 9.39141V10.5434H122.475ZM121.183 17.6714C121.183 16.7174 121.183 15.4574 121.183 14.5394C121.378 15.3674 121.82 16.6454 122.05 17.1494C121.82 17.2934 121.466 17.4914 121.183 17.6714ZM127.646 10.1834H128.194V10.5794H127.646V10.1834ZM128.194 12.3794H127.646V11.9834H128.194V12.3794Z" fill="black"/>
<path id="Vector_29" d="M141.563 16.052L140.465 15.206H141.085H141.492V13.676H142.005V12.272H141.492V10.76H141.049H139.757H138.163V10.4H142.005V8.92397H138.074V8.16797H135.879V8.92397H131.86C131.877 10.256 131.895 12.272 131.877 13.352C131.842 15.098 131.753 16.952 131.098 18.176L132.656 19.076C132.886 18.59 133.064 18.068 133.188 17.546L133.559 18.878C134.374 18.608 134.923 18.266 135.436 17.942C135.631 18.374 135.684 18.788 135.773 19.328C135.773 19.328 135.843 19.328 135.897 19.328C137.384 19.328 138.181 19.004 138.181 17.744C138.181 17.744 138.181 17.294 138.181 17.114C138.181 17.024 138.128 16.772 138.074 16.574L138.145 16.556C138.234 16.718 138.322 16.898 138.411 17.024C139.048 17.78 140.004 18.374 141.315 18.932L142.094 17.528C141.616 17.312 141.191 17.096 140.837 16.916C141.067 16.646 141.262 16.43 141.563 16.052ZM139.757 14.054H138.163V13.694H139.757V14.054ZM133.843 15.224L133.471 15.944C133.559 15.17 133.595 14.414 133.612 13.712H136.41V14.072H133.843V15.224ZM139.757 11.912V12.272H138.163V11.912H139.757ZM136.41 10.76H134.055V11.93H136.41V12.29H133.63C133.63 11.768 133.612 11.066 133.612 10.4H136.41V10.76ZM133.276 17.114C133.329 16.826 133.382 16.538 133.435 16.232C133.701 16.358 134.073 16.538 134.409 16.718C134.02 16.862 133.63 17.006 133.276 17.114ZM136.41 17.06V17.51H136.021V16.088C135.826 16.178 135.631 16.25 135.419 16.34L135.649 15.728C135.649 15.728 135.135 15.458 134.675 15.224H136.428V16.34V16.898V17.06H136.41ZM138.535 15.224H139.757H139.881C139.668 15.494 139.526 15.692 139.279 15.98C138.924 15.674 138.694 15.44 138.535 15.224Z" fill="black"/>
<path id="Vector_30" d="M165.573 11.8398V10.9578C166.015 11.2458 166.245 11.4258 166.617 11.6418L167.379 10.0938C167.042 9.91384 166.599 9.71584 165.891 9.28384C165.024 8.76184 164.439 8.38384 164.103 8.13184H162.208C161.854 8.38384 161.341 8.72584 160.562 9.17584C160.349 9.30184 160.154 9.40984 159.96 9.51784V8.32984H156.17V19.0578H157.817V15.7098C157.941 15.9798 158.012 16.2678 158.03 16.6998C158.03 16.6998 158.26 16.6998 158.331 16.6998C158.862 16.6638 159.163 16.4658 159.411 16.1598C159.783 15.7098 159.871 15.0078 159.818 14.4858C159.712 13.6758 159.411 13.1358 158.897 12.2898C159.057 11.9478 159.269 11.4618 159.464 11.0118L159.783 11.5878C160.19 11.3538 160.385 11.1918 160.88 10.8498V11.8398H162.297V12.2718H161.571H159.977V15.8898H161.571H161.801C161.376 16.4118 160.154 17.0598 159.039 17.4198L159.871 19.0218C161.128 18.5898 161.801 18.1038 162.474 17.5818C162.704 17.4018 162.917 17.1858 163.147 16.9338C163.342 17.1498 163.554 17.3478 163.766 17.5278C164.351 17.9958 165.183 18.5358 166.192 18.9678L167.007 17.3838C166.051 16.9878 164.9 16.4478 164.351 15.8718H164.723H165.856H166.387V12.2718H165.696H164.705H163.997V11.8398H165.573ZM157.817 9.85984H158.401C158.242 10.4178 158.03 11.1558 157.817 11.8038V9.85984ZM158.366 14.7918H157.799V12.8478C158.171 13.5498 158.401 14.4858 158.366 14.7918ZM161.589 13.6038H162.315V14.5938H161.589V13.6038ZM164.723 13.6038V14.5938H164.014V13.6038H164.723ZM162.438 9.73384H163.147H163.873C164.103 9.89584 164.439 10.2018 164.847 10.4718H161.482C161.872 10.2018 162.226 9.89584 162.438 9.73384Z" fill="black"/>
</g>
</g>
</g>
</svg>
